<svg xmlns="http://www.w3.org/2000/svg" xmlns:xlink="http://www.w3.org/1999/xlink" width="1080" zoomAndPan="magnify" viewBox="0 0 810 809.999993" height="1080" preserveAspectRatio="xMidYMid meet" version="1.0"><path fill="#283593" d="M 388.007812 7.410156 C 401.035156 0.0976562 417.074219 0.0976562 430.082031 7.410156 C 494.453125 43.550781 688.160156 152.34375 752.550781 188.488281 C 765.578125 195.78125 773.601562 209.292969 773.601562 223.921875 C 773.601562 296.207031 773.601562 513.773438 773.601562 586.058594 C 773.601562 600.6875 765.578125 614.199219 752.550781 621.511719 C 688.179688 657.65625 494.472656 766.449219 430.082031 802.589844 C 417.054688 809.902344 401.015625 809.902344 388.007812 802.589844 C 323.632812 766.449219 129.925781 657.65625 65.535156 621.511719 C 52.527344 614.199219 44.507812 600.707031 44.507812 586.078125 C 44.507812 513.792969 44.507812 296.226562 44.507812 223.941406 C 44.507812 209.3125 52.527344 195.800781 65.554688 188.488281 C 129.90625 152.34375 323.652344 43.550781 388.007812 7.410156 Z M 388.007812 7.410156 " fill-opacity="1" fill-rule="evenodd"/><path fill="#5c6bc0" d="M 50.339844 604.699219 C 45.238281 597.863281 44.507812 591.375 44.507812 582.644531 C 44.507812 510.78125 44.507812 294.460938 44.507812 222.578125 C 44.507812 208.027344 52.507812 194.59375 65.496094 187.335938 C 129.636719 151.40625 322.695312 43.246094 386.835938 7.292969 C 399.824219 0.0195312 417.417969 0.171875 430.410156 7.449219 C 494.550781 43.378906 686.953125 150.617188 751.09375 186.550781 C 756.273438 189.46875 760.226562 192.980469 763.757812 197.605469 Z M 50.339844 604.699219 " fill-opacity="1" fill-rule="evenodd"/><path fill="#ffffff" d="M 409.054688 136.28125 C 557.308594 136.28125 677.667969 256.683594 677.667969 405 C 677.667969 553.316406 557.308594 673.71875 409.054688 673.71875 C 260.796875 673.71875 140.441406 553.316406 140.441406 405 C 140.441406 256.683594 260.796875 136.28125 409.054688 136.28125 Z M 409.054688 270.640625 C 483.171875 270.640625 543.359375 330.832031 543.359375 405 C 543.359375 479.148438 483.171875 539.359375 409.054688 539.359375 C 334.9375 539.359375 274.746094 479.148438 274.746094 405 C 274.746094 330.832031 334.917969 270.640625 409.054688 270.640625 Z M 409.054688 270.640625 " fill-opacity="1" fill-rule="evenodd"/><path fill="#3949ab" d="M 763.71875 197.796875 C 773.617188 207.066406 773.425781 221.042969 773.425781 232.039062 C 773.425781 304.882812 772.8125 512.066406 773.601562 584.910156 C 773.675781 592.507812 771.164062 600.511719 767.402344 606.539062 L 401.246094 405 Z M 763.71875 197.796875 " fill-opacity="1" fill-rule="evenodd"/></svg>