<svg xmlns="http://www.w3.org/2000/svg" xmlns:xlink="http://www.w3.org/1999/xlink" width="1080" zoomAndPan="magnify" viewBox="0 0 810 809.999993" height="1080" preserveAspectRatio="xMidYMid meet" version="1.0"><defs><clipPath id="d87807fe5f"><path d="M 42.523438 0 L 767.773438 0 L 767.773438 810 L 42.523438 810 Z M 42.523438 0 " clip-rule="nonzero"/></clipPath></defs><g clip-path="url(#d87807fe5f)"><path fill="#0277bd" d="M 767.671875 0 L 42.628906 0 L 106.601562 724.738281 L 405.148438 810 L 703.695312 724.738281 Z M 767.671875 0 " fill-opacity="1" fill-rule="nonzero"/></g><path fill="#039be5" d="M 405.148438 63.949219 L 405.148438 743.921875 L 643.988281 675.710938 L 697.300781 63.949219 Z M 405.148438 63.949219 " fill-opacity="1" fill-rule="nonzero"/><path fill="#ffffff" d="M 599.207031 170.527344 L 405.148438 170.527344 L 405.148438 255.789062 L 509.640625 255.789062 L 503.242188 341.050781 L 405.148438 341.050781 L 405.148438 426.316406 L 498.980469 426.316406 L 492.582031 522.238281 L 405.148438 552.078125 L 405.148438 641.605469 L 573.617188 586.183594 L 588.542969 341.050781 Z M 599.207031 170.527344 " fill-opacity="1" fill-rule="nonzero"/><path fill="#eeeeee" d="M 405.148438 170.527344 L 405.148438 255.789062 L 215.359375 255.789062 L 208.960938 170.527344 Z M 307.054688 341.050781 L 311.320312 426.316406 L 405.148438 426.316406 L 405.148438 341.050781 Z M 315.585938 468.949219 L 230.285156 468.949219 L 236.683594 586.183594 L 405.148438 641.605469 L 405.148438 552.078125 L 317.71875 522.238281 Z M 315.585938 468.949219 " fill-opacity="1" fill-rule="nonzero"/></svg>