<svg xmlns="http://www.w3.org/2000/svg" xmlns:xlink="http://www.w3.org/1999/xlink" width="1080" zoomAndPan="magnify" viewBox="0 0 810 809.999993" height="1080" preserveAspectRatio="xMidYMid meet" version="1.0"><path fill="#e44d26" d="M 115.648438 725.976562 L 51.261719 3.820312 L 758.738281 3.820312 L 694.285156 725.84375 L 404.566406 806.179688 Z M 115.648438 725.976562 " fill-opacity="1" fill-rule="nonzero"/><path fill="#f16529" d="M 405 744.796875 L 639.121094 679.90625 L 694.183594 62.859375 L 405 62.859375 Z M 405 744.796875 " fill-opacity="1" fill-rule="nonzero"/><path fill="#ebebeb" d="M 405 330.714844 L 287.789062 330.714844 L 279.699219 240.015625 L 405 240.015625 L 405 151.453125 L 182.914062 151.453125 L 185.019531 175.191406 L 206.785156 419.273438 L 405 419.273438 Z M 405 560.722656 L 404.597656 560.824219 L 305.976562 534.179688 L 299.65625 463.539062 L 210.761719 463.539062 L 223.164062 602.613281 L 404.597656 652.960938 L 405 652.863281 Z M 405 560.722656 " fill-opacity="1" fill-rule="nonzero"/><path fill="#ffffff" d="M 404.699219 330.714844 L 404.699219 419.273438 L 513.753906 419.273438 L 503.457031 534.144531 L 404.664062 560.792969 L 404.664062 652.929688 L 586.234375 602.613281 L 587.570312 587.636719 L 608.398438 354.453125 L 610.570312 330.679688 L 586.699219 330.679688 Z M 404.699219 151.453125 L 404.699219 240.015625 L 618.628906 240.015625 L 620.398438 220.089844 L 624.445312 175.191406 L 626.550781 151.421875 Z M 404.699219 151.453125 " fill-opacity="1" fill-rule="nonzero"/></svg>