<svg xmlns="http://www.w3.org/2000/svg" xmlns:xlink="http://www.w3.org/1999/xlink" width="1080" zoomAndPan="magnify" viewBox="0 0 810 809.999993" height="1080" preserveAspectRatio="xMidYMid meet" version="1.0"><path fill="#4e7d9d" d="M 153.640625 747.207031 C 470.714844 799.1875 731.582031 723.777344 649.335938 686.289062 C 649.335938 686.289062 671.796875 705 624.632812 719.460938 C 534.886719 746.972656 251.054688 755.242188 172.253906 720.566406 C 143.933594 708.082031 197.09375 690.777344 213.761719 687.160156 C 231.203125 683.34375 241.179688 684.046875 241.179688 684.046875 C 209.578125 661.589844 37.351562 728.128906 153.640625 747.207031 Z M 153.640625 747.207031 " fill-opacity="1" fill-rule="nonzero"/><path fill="#4e7d9d" d="M 699.617188 727.191406 C 699.617188 727.191406 689.605469 753.132812 581.382812 773.75 C 459.332031 796.980469 308.695312 794.269531 219.421875 779.375 C 219.421875 779.339844 237.730469 794.671875 331.726562 800.761719 C 474.765625 810.035156 694.425781 795.640625 699.617188 727.191406 Z M 699.617188 727.191406 " fill-opacity="1" fill-rule="nonzero"/><path fill="#4e7d9d" d="M 513.664062 553.914062 C 421.742188 571.820312 368.652344 571.21875 301.398438 564.222656 C 249.445312 558.765625 283.457031 533.292969 283.457031 533.292969 C 148.921875 578.414062 358.339844 629.65625 546.300781 574.0625 C 526.351562 566.933594 513.664062 553.914062 513.664062 553.914062 Z M 513.664062 553.914062 " fill-opacity="1" fill-rule="nonzero"/><path fill="#4e7d9d" d="M 576.027344 588.554688 C 575.355469 590.429688 573.046875 592.472656 573.046875 592.503906 C 772.089844 539.585938 698.914062 405.96875 603.742188 439.808594 C 595.375 442.820312 590.988281 449.75 590.988281 449.75 C 590.988281 449.75 596.277344 447.609375 608.027344 445.132812 C 656.164062 434.957031 725.054688 510.234375 576.027344 588.554688 Z M 576.027344 588.554688 " fill-opacity="1" fill-rule="nonzero"/><path fill="#f2941b" d="M 314.421875 255.285156 C 277.398438 311.546875 332.632812 371.964844 407.882812 440.679688 C 378.527344 373.605469 278.972656 314.863281 407.917969 211.871094 C 568.730469 83.476562 486.179688 0 486.179688 0 C 519.519531 132.613281 368.816406 172.644531 314.421875 255.285156 Z M 314.421875 255.285156 " fill-opacity="1" fill-rule="nonzero"/><path fill="#f2941b" d="M 585.699219 164.074219 C 585.699219 164.042969 313.785156 232.722656 443.667969 384.082031 C 481.996094 428.699219 433.589844 468.863281 433.589844 468.863281 C 433.589844 468.863281 530.867188 418.054688 486.179688 354.457031 C 444.4375 295.148438 412.433594 265.695312 585.699219 164.074219 Z M 585.699219 164.074219 " fill-opacity="1" fill-rule="nonzero"/><path fill="#4e7d9d" d="M 302.503906 621.222656 C 180.386719 655.730469 376.785156 727.058594 532.308594 659.679688 C 506.867188 649.640625 488.589844 638.058594 488.589844 638.058594 C 419.265625 651.378906 387.09375 652.417969 324.128906 645.121094 C 272.144531 639.097656 302.503906 621.222656 302.503906 621.222656 Z M 302.503906 621.222656 " fill-opacity="1" fill-rule="nonzero"/><path fill="#4e7d9d" d="M 540.34375 491.019531 C 555.605469 480.476562 576.695312 471.375 576.695312 471.375 C 576.695312 471.375 516.710938 482.25 456.957031 487.339844 C 383.847656 493.53125 305.351562 494.734375 265.984375 489.414062 C 172.722656 476.828125 317.097656 442.152344 317.097656 442.152344 C 317.097656 442.152344 261.027344 438.335938 192.136719 472.007812 C 110.558594 511.875 393.789062 530.015625 540.34375 491.019531 Z M 540.34375 491.019531 " fill-opacity="1" fill-rule="nonzero"/></svg>