<svg xmlns="http://www.w3.org/2000/svg" xmlns:xlink="http://www.w3.org/1999/xlink" width="1080" zoomAndPan="magnify" viewBox="0 0 810 809.999993" height="1080" preserveAspectRatio="xMidYMid meet" version="1.0"><defs><clipPath id="e9e0810240"><path d="M 8 6 L 810 6 L 810 810 L 8 810 Z M 8 6 " clip-rule="nonzero"/></clipPath><clipPath id="40d0b36dc2"><path d="M 8 6 L 414 6 L 414 810 L 8 810 Z M 8 6 " clip-rule="nonzero"/></clipPath></defs><g clip-path="url(#e9e0810240)"><path fill="#ffc44d" d="M 36.605469 4.117188 C 28.5 4.117188 20.785156 7.597656 15.421875 13.671875 C 10.058594 19.75 7.5625 27.835938 8.566406 35.878906 L 83.917969 638.667969 C 85.089844 648.042969 90.867188 656.210938 99.316406 660.433594 L 400.714844 811.132812 C 408.667969 815.109375 418.03125 815.109375 425.984375 811.132812 L 727.378906 660.433594 C 735.832031 656.210938 741.609375 648.042969 742.78125 638.667969 L 818.128906 35.878906 C 819.136719 27.835938 816.640625 19.75 811.277344 13.671875 C 805.914062 7.597656 798.195312 4.117188 790.09375 4.117188 Z M 36.605469 4.117188 " fill-opacity="1" fill-rule="nonzero"/></g><g clip-path="url(#40d0b36dc2)"><path fill="#e5b045" d="M 413.347656 4.117188 L 413.347656 814.117188 C 409.019531 814.117188 404.691406 813.121094 400.714844 811.132812 L 99.316406 660.433594 C 90.867188 656.210938 85.089844 648.042969 83.917969 638.667969 L 8.566406 35.878906 C 7.5625 27.835938 10.058594 19.75 15.421875 13.671875 C 20.785156 7.597656 28.5 4.117188 36.605469 4.117188 Z M 413.347656 4.117188 " fill-opacity="1" fill-rule="evenodd"/></g><path fill="#cfd8dc" d="M 356.839844 117.140625 C 372.445312 117.140625 385.097656 129.789062 385.097656 145.394531 L 385.097656 635.164062 C 385.097656 645.238281 379.734375 654.546875 371.023438 659.601562 C 362.3125 664.65625 351.566406 664.691406 342.824219 659.695312 L 210.964844 584.347656 C 197.414062 576.605469 192.707031 559.34375 200.449219 545.796875 C 208.191406 532.246094 225.453125 527.539062 239 535.28125 L 328.585938 586.472656 L 328.585938 145.394531 C 328.585938 129.789062 341.238281 117.140625 356.839844 117.140625 Z M 356.839844 117.140625 " fill-opacity="1" fill-rule="evenodd"/><path fill="#eceff1" d="M 441.613281 145.394531 C 441.613281 129.789062 454.261719 117.140625 469.867188 117.140625 L 658.242188 117.140625 C 673.84375 117.140625 686.496094 129.789062 686.496094 145.394531 C 686.496094 161 673.84375 173.652344 658.242188 173.652344 L 498.125 173.652344 L 498.125 355.054688 L 633.273438 325.023438 C 642.078125 323.066406 651.289062 325.429688 658.0625 331.386719 C 664.835938 337.347656 668.359375 346.175781 667.542969 355.164062 L 648.707031 562.371094 C 647.820312 572.117188 641.953125 580.710938 633.203125 585.085938 L 482.503906 660.433594 C 468.546875 667.414062 451.574219 661.757812 444.59375 647.796875 C 437.617188 633.839844 443.273438 616.867188 457.230469 609.890625 L 593.851562 541.578125 L 607.761719 388.578125 L 475.996094 417.859375 C 467.628906 419.722656 458.871094 417.683594 452.1875 412.320312 C 445.5 406.957031 441.613281 398.851562 441.613281 390.277344 Z M 441.613281 145.394531 " fill-opacity="1" fill-rule="evenodd"/></svg>