<svg xmlns="http://www.w3.org/2000/svg" xmlns:xlink="http://www.w3.org/1999/xlink" width="1080" zoomAndPan="magnify" viewBox="0 0 810 809.999993" height="1080" preserveAspectRatio="xMidYMid meet" version="1.0"><path fill="#8cc84b" d="M 371.359375 10.683594 C 391.382812 -0.652344 416.914062 -0.699219 436.4375 10.683594 L 735.410156 179.167969 C 754.109375 189.675781 766.625 210.523438 766.449219 232.066406 L 766.449219 569.882812 C 766.574219 592.328125 752.832031 613.621094 733.105469 623.933594 L 435.738281 791.640625 C 433.207031 793.039062 430.59375 794.261719 427.898438 795.3125 C 425.203125 796.363281 422.453125 797.230469 419.640625 797.914062 C 416.832031 798.597656 413.988281 799.089844 411.113281 799.394531 C 408.234375 799.699219 405.351562 799.8125 402.460938 799.730469 C 399.570312 799.652344 396.695312 799.378906 393.839844 798.917969 C 390.984375 798.453125 388.175781 797.804688 385.40625 796.964844 C 382.636719 796.128906 379.9375 795.109375 377.304688 793.914062 C 374.671875 792.714844 372.132812 791.347656 369.679688 789.8125 L 280.445312 738.265625 C 274.363281 734.636719 267.53125 731.757812 263.222656 725.878906 C 267.027344 720.773438 273.789062 720.121094 279.292969 717.871094 C 291.710938 713.917969 303.074219 707.859375 314.488281 701.453125 C 317.367188 699.453125 320.894531 700.203125 323.648438 702.003906 L 399.742188 745.996094 C 405.175781 749.125 410.683594 744.996094 415.335938 742.367188 L 707.324219 577.640625 C 710.929688 575.886719 712.933594 572.085938 712.632812 568.128906 L 712.632812 233.566406 C 713.03125 229.0625 710.453125 224.960938 706.375 223.132812 L 409.753906 56.152344 C 408.902344 55.5625 407.976562 55.109375 406.984375 54.800781 C 405.996094 54.488281 404.980469 54.332031 403.941406 54.332031 C 402.902344 54.328125 401.882812 54.480469 400.890625 54.785156 C 399.898438 55.09375 398.972656 55.539062 398.117188 56.128906 L 101.925781 223.457031 C 97.917969 225.285156 95.164062 229.339844 95.667969 233.84375 L 95.667969 568.40625 C 95.316406 572.359375 97.417969 576.085938 101.046875 577.789062 L 180.195312 622.457031 C 195.066406 630.464844 213.3125 634.96875 229.683594 629.085938 C 231.464844 628.417969 233.183594 627.613281 234.839844 626.683594 C 236.5 625.75 238.078125 624.699219 239.578125 623.527344 C 241.074219 622.355469 242.476562 621.074219 243.78125 619.691406 C 245.085938 618.304688 246.277344 616.828125 247.359375 615.261719 C 248.4375 613.695312 249.390625 612.058594 250.222656 610.347656 C 251.054688 608.636719 251.75 606.871094 252.3125 605.054688 C 252.875 603.234375 253.296875 601.386719 253.578125 599.503906 C 253.859375 597.625 253.996094 595.730469 253.988281 593.828125 L 254.0625 261.269531 C 253.710938 256.339844 258.367188 252.261719 263.148438 252.761719 L 301.195312 252.761719 C 306.203125 252.636719 310.132812 257.941406 309.457031 262.894531 L 309.382812 597.558594 C 309.40625 627.285156 297.191406 659.617188 269.683594 674.203125 C 235.789062 691.722656 193.886719 688.042969 160.398438 671.203125 L 75.292969 624.15625 C 55.265625 614.148438 41.824219 592.527344 41.949219 570.105469 L 41.949219 232.292969 C 41.96875 229.558594 42.171875 226.839844 42.554688 224.132812 C 42.9375 221.429688 43.5 218.757812 44.238281 216.128906 C 44.976562 213.496094 45.886719 210.925781 46.96875 208.417969 C 48.046875 205.90625 49.289062 203.480469 50.695312 201.132812 C 52.097656 198.789062 53.652344 196.546875 55.355469 194.410156 C 57.058594 192.273438 58.894531 190.257812 60.867188 188.363281 C 62.839844 186.472656 64.925781 184.71875 67.132812 183.101562 C 69.335938 181.488281 71.640625 180.023438 74.039062 178.71875 Z M 457.566406 244.855469 C 500.792969 242.351562 547.074219 243.203125 585.972656 264.496094 C 616.085938 280.8125 632.78125 315.042969 633.332031 348.527344 C 632.480469 353.03125 627.777344 355.53125 623.472656 355.207031 C 610.957031 355.179688 598.390625 355.382812 585.824219 355.132812 C 580.492188 355.332031 577.414062 350.425781 576.738281 345.722656 C 573.132812 329.707031 564.398438 313.867188 549.328125 306.136719 C 526.199219 294.550781 499.367188 295.125 474.136719 295.375 C 455.710938 296.375 435.914062 297.953125 420.320312 308.761719 C 408.304688 316.972656 404.699219 333.785156 408.980469 346.847656 C 412.984375 356.433594 424.074219 359.511719 433.109375 362.363281 C 485.222656 375.976562 540.417969 374.875 591.554688 392.566406 C 612.707031 399.875 633.410156 414.085938 640.667969 436.230469 C 650.128906 465.910156 646 501.394531 624.898438 525.214844 C 607.777344 544.832031 582.84375 555.242188 557.941406 561.300781 C 524.824219 568.679688 490.480469 568.855469 456.863281 565.554688 C 425.25 561.949219 392.359375 553.640625 367.953125 532.121094 C 347.078125 514.003906 336.914062 485.777344 337.917969 458.554688 C 338.167969 453.949219 342.746094 450.746094 347.179688 451.121094 L 384.726562 451.121094 C 389.78125 450.769531 393.484375 455.125 393.734375 459.878906 C 396.0625 474.894531 401.796875 491.160156 415.113281 499.917969 C 440.792969 516.480469 473.007812 515.332031 502.394531 515.804688 C 526.75 514.730469 554.085938 514.40625 573.984375 498.289062 C 584.496094 489.105469 587.578125 473.765625 584.746094 460.554688 C 581.667969 449.394531 569.730469 444.214844 559.71875 440.535156 C 508.277344 424.269531 452.457031 430.175781 401.519531 411.757812 C 380.84375 404.453125 360.84375 390.640625 352.910156 369.394531 C 341.820312 339.367188 346.902344 302.15625 370.257812 279.136719 C 392.785156 256.238281 425.824219 247.40625 457.113281 244.253906 Z M 457.566406 244.855469 " fill-opacity="1" fill-rule="nonzero"/></svg>