<svg xmlns="http://www.w3.org/2000/svg" xmlns:xlink="http://www.w3.org/1999/xlink" width="1080" zoomAndPan="magnify" viewBox="0 0 810 809.999993" height="1080" preserveAspectRatio="xMidYMid meet" version="1.0"><defs><clipPath id="57bc295582"><path d="M 0 194.398438 L 810 194.398438 L 810 615.898438 L 0 615.898438 Z M 0 194.398438 " clip-rule="nonzero"/></clipPath><clipPath id="0d6521067b"><path d="M 0 405.214844 C 0 521.351562 181.328125 615.5 404.988281 615.5 C 628.648438 615.5 809.976562 521.351562 809.976562 405.214844 C 809.976562 289.082031 628.648438 194.933594 404.988281 194.933594 C 181.328125 194.933594 0 289.085938 0 405.214844 " clip-rule="nonzero"/></clipPath><clipPath id="6fc89863c7"><path d="M 0 405.214844 C 0 521.351562 181.328125 615.5 404.988281 615.5 C 628.648438 615.5 809.976562 521.351562 809.976562 405.214844 C 809.976562 289.082031 628.648438 194.933594 404.988281 194.933594 C 181.328125 194.933594 0 289.085938 0 405.214844 " clip-rule="nonzero"/></clipPath><radialGradient gradientTransform="matrix(1.006515, 0, 0, 0.993485, 243.157291, 268.857988)" gradientUnits="userSpaceOnUse" r="528.369595" cx="0" id="d658c9ddec" cy="0" fx="0" fy="0"><stop stop-opacity="1" stop-color="rgb(68.199158%, 69.799805%, 83.499146%)" offset="0"/><stop stop-opacity="1" stop-color="rgb(68.199158%, 69.799805%, 83.499146%)" offset="0.25"/><stop stop-opacity="1" stop-color="rgb(68.164062%, 69.764709%, 83.473206%)" offset="0.296875"/><stop stop-opacity="1" stop-color="rgb(67.956543%, 69.555664%, 83.317566%)" offset="0.300781"/><stop stop-opacity="1" stop-color="rgb(67.608643%, 69.20929%, 83.059692%)" offset="0.304688"/><stop stop-opacity="1" stop-color="rgb(67.260742%, 68.861389%, 82.800293%)" offset="0.308594"/><stop stop-opacity="1" stop-color="rgb(66.914368%, 68.513489%, 82.542419%)" offset="0.3125"/><stop stop-opacity="1" stop-color="rgb(66.566467%, 68.167114%, 82.28302%)" offset="0.316406"/><stop stop-opacity="1" stop-color="rgb(66.220093%, 67.819214%, 82.025146%)" offset="0.320312"/><stop stop-opacity="1" stop-color="rgb(65.872192%, 67.472839%, 81.765747%)" offset="0.324219"/><stop stop-opacity="1" stop-color="rgb(65.525818%, 67.124939%, 81.506348%)" offset="0.328125"/><stop stop-opacity="1" stop-color="rgb(65.177917%, 66.778564%, 81.248474%)" offset="0.332031"/><stop stop-opacity="1" stop-color="rgb(64.831543%, 66.430664%, 80.989075%)" offset="0.335938"/><stop stop-opacity="1" stop-color="rgb(64.483643%, 66.08429%, 80.731201%)" offset="0.339844"/><stop stop-opacity="1" stop-color="rgb(64.135742%, 65.736389%, 80.471802%)" offset="0.34375"/><stop stop-opacity="1" stop-color="rgb(63.789368%, 65.388489%, 80.213928%)" offset="0.347656"/><stop stop-opacity="1" stop-color="rgb(63.441467%, 65.042114%, 79.954529%)" offset="0.351562"/><stop stop-opacity="1" stop-color="rgb(63.095093%, 64.694214%, 79.696655%)" offset="0.355469"/><stop stop-opacity="1" stop-color="rgb(62.747192%, 64.347839%, 79.437256%)" offset="0.359375"/><stop stop-opacity="1" stop-color="rgb(62.400818%, 63.999939%, 79.179382%)" offset="0.363281"/><stop stop-opacity="1" stop-color="rgb(62.052917%, 63.653564%, 78.919983%)" offset="0.367188"/><stop stop-opacity="1" stop-color="rgb(61.706543%, 63.305664%, 78.662109%)" offset="0.371094"/><stop stop-opacity="1" stop-color="rgb(61.358643%, 62.95929%, 78.40271%)" offset="0.375"/><stop stop-opacity="1" stop-color="rgb(61.010742%, 62.611389%, 78.144836%)" offset="0.378906"/><stop stop-opacity="1" stop-color="rgb(60.664368%, 62.263489%, 77.885437%)" offset="0.382812"/><stop stop-opacity="1" stop-color="rgb(60.316467%, 61.917114%, 77.627563%)" offset="0.386719"/><stop stop-opacity="1" stop-color="rgb(59.970093%, 61.569214%, 77.368164%)" offset="0.390625"/><stop stop-opacity="1" stop-color="rgb(59.622192%, 61.222839%, 77.108765%)" offset="0.394531"/><stop stop-opacity="1" stop-color="rgb(59.275818%, 60.874939%, 76.850891%)" offset="0.398438"/><stop stop-opacity="1" stop-color="rgb(58.927917%, 60.528564%, 76.591492%)" offset="0.402344"/><stop stop-opacity="1" stop-color="rgb(58.581543%, 60.180664%, 76.333618%)" offset="0.40625"/><stop stop-opacity="1" stop-color="rgb(58.233643%, 59.83429%, 76.074219%)" offset="0.410156"/><stop stop-opacity="1" stop-color="rgb(57.885742%, 59.486389%, 75.816345%)" offset="0.414062"/><stop stop-opacity="1" stop-color="rgb(57.539368%, 59.138489%, 75.556946%)" offset="0.417969"/><stop stop-opacity="1" stop-color="rgb(57.191467%, 58.792114%, 75.299072%)" offset="0.421875"/><stop stop-opacity="1" stop-color="rgb(56.845093%, 58.444214%, 75.039673%)" offset="0.425781"/><stop stop-opacity="1" stop-color="rgb(56.497192%, 58.097839%, 74.781799%)" offset="0.429688"/><stop stop-opacity="1" stop-color="rgb(56.150818%, 57.749939%, 74.5224%)" offset="0.433594"/><stop stop-opacity="1" stop-color="rgb(55.802917%, 57.403564%, 74.264526%)" offset="0.4375"/><stop stop-opacity="1" stop-color="rgb(55.456543%, 57.055664%, 74.005127%)" offset="0.441406"/><stop stop-opacity="1" stop-color="rgb(55.108643%, 56.70929%, 73.747253%)" offset="0.445312"/><stop stop-opacity="1" stop-color="rgb(54.760742%, 56.361389%, 73.487854%)" offset="0.449219"/><stop stop-opacity="1" stop-color="rgb(54.414368%, 56.013489%, 73.22998%)" offset="0.453125"/><stop stop-opacity="1" stop-color="rgb(54.066467%, 55.667114%, 72.970581%)" offset="0.457031"/><stop stop-opacity="1" stop-color="rgb(53.720093%, 55.319214%, 72.711182%)" offset="0.460938"/><stop stop-opacity="1" stop-color="rgb(53.372192%, 54.972839%, 72.453308%)" offset="0.464844"/><stop stop-opacity="1" stop-color="rgb(53.025818%, 54.624939%, 72.193909%)" offset="0.46875"/><stop stop-opacity="1" stop-color="rgb(52.677917%, 54.278564%, 71.936035%)" offset="0.472656"/><stop stop-opacity="1" stop-color="rgb(52.331543%, 53.930664%, 71.676636%)" offset="0.476562"/><stop stop-opacity="1" stop-color="rgb(51.983643%, 53.58429%, 71.418762%)" offset="0.480469"/><stop stop-opacity="1" stop-color="rgb(51.635742%, 53.236389%, 71.159363%)" offset="0.484375"/><stop stop-opacity="1" stop-color="rgb(51.289368%, 52.888489%, 70.901489%)" offset="0.488281"/><stop stop-opacity="1" stop-color="rgb(50.941467%, 52.542114%, 70.64209%)" offset="0.492188"/><stop stop-opacity="1" stop-color="rgb(50.595093%, 52.194214%, 70.384216%)" offset="0.496094"/><stop stop-opacity="1" stop-color="rgb(50.247192%, 51.847839%, 70.124817%)" offset="0.5"/><stop stop-opacity="1" stop-color="rgb(49.900818%, 51.499939%, 69.866943%)" offset="0.503906"/><stop stop-opacity="1" stop-color="rgb(49.552917%, 51.153564%, 69.607544%)" offset="0.507812"/><stop stop-opacity="1" stop-color="rgb(49.206543%, 50.805664%, 69.34967%)" offset="0.511719"/><stop stop-opacity="1" stop-color="rgb(48.858643%, 50.45929%, 69.090271%)" offset="0.515625"/><stop stop-opacity="1" stop-color="rgb(48.510742%, 50.111389%, 68.832397%)" offset="0.519531"/><stop stop-opacity="1" stop-color="rgb(48.164368%, 49.763489%, 68.572998%)" offset="0.523438"/><stop stop-opacity="1" stop-color="rgb(47.816467%, 49.417114%, 68.313599%)" offset="0.527344"/><stop stop-opacity="1" stop-color="rgb(47.470093%, 49.069214%, 68.055725%)" offset="0.53125"/><stop stop-opacity="1" stop-color="rgb(47.122192%, 48.722839%, 67.796326%)" offset="0.535156"/><stop stop-opacity="1" stop-color="rgb(46.775818%, 48.374939%, 67.538452%)" offset="0.539062"/><stop stop-opacity="1" stop-color="rgb(46.427917%, 48.028564%, 67.279053%)" offset="0.542969"/><stop stop-opacity="1" stop-color="rgb(46.081543%, 47.680664%, 67.021179%)" offset="0.546875"/><stop stop-opacity="1" stop-color="rgb(45.733643%, 47.33429%, 66.76178%)" offset="0.550781"/><stop stop-opacity="1" stop-color="rgb(45.385742%, 46.986389%, 66.503906%)" offset="0.554688"/><stop stop-opacity="1" stop-color="rgb(45.039368%, 46.638489%, 66.244507%)" offset="0.558594"/><stop stop-opacity="1" stop-color="rgb(44.691467%, 46.292114%, 65.986633%)" offset="0.5625"/><stop stop-opacity="1" stop-color="rgb(44.345093%, 45.944214%, 65.727234%)" offset="0.566406"/><stop stop-opacity="1" stop-color="rgb(43.997192%, 45.597839%, 65.46936%)" offset="0.570312"/><stop stop-opacity="1" stop-color="rgb(43.650818%, 45.249939%, 65.209961%)" offset="0.574219"/><stop stop-opacity="1" stop-color="rgb(43.302917%, 44.903564%, 64.952087%)" offset="0.578125"/><stop stop-opacity="1" stop-color="rgb(42.956543%, 44.555664%, 64.692688%)" offset="0.582031"/><stop stop-opacity="1" stop-color="rgb(42.608643%, 44.20929%, 64.434814%)" offset="0.585938"/><stop stop-opacity="1" stop-color="rgb(42.260742%, 43.861389%, 64.175415%)" offset="0.589844"/><stop stop-opacity="1" stop-color="rgb(41.914368%, 43.513489%, 63.916016%)" offset="0.59375"/><stop stop-opacity="1" stop-color="rgb(41.566467%, 43.167114%, 63.658142%)" offset="0.597656"/><stop stop-opacity="1" stop-color="rgb(41.220093%, 42.819214%, 63.398743%)" offset="0.601562"/><stop stop-opacity="1" stop-color="rgb(40.872192%, 42.472839%, 63.140869%)" offset="0.605469"/><stop stop-opacity="1" stop-color="rgb(40.525818%, 42.124939%, 62.88147%)" offset="0.609375"/><stop stop-opacity="1" stop-color="rgb(40.177917%, 41.778564%, 62.623596%)" offset="0.613281"/><stop stop-opacity="1" stop-color="rgb(39.831543%, 41.430664%, 62.364197%)" offset="0.617188"/><stop stop-opacity="1" stop-color="rgb(39.483643%, 41.08429%, 62.106323%)" offset="0.621094"/><stop stop-opacity="1" stop-color="rgb(39.135742%, 40.736389%, 61.846924%)" offset="0.625"/><stop stop-opacity="1" stop-color="rgb(38.789368%, 40.388489%, 61.58905%)" offset="0.628906"/><stop stop-opacity="1" stop-color="rgb(38.441467%, 40.042114%, 61.329651%)" offset="0.632812"/><stop stop-opacity="1" stop-color="rgb(38.095093%, 39.694214%, 61.071777%)" offset="0.636719"/><stop stop-opacity="1" stop-color="rgb(37.747192%, 39.347839%, 60.812378%)" offset="0.640625"/><stop stop-opacity="1" stop-color="rgb(37.400818%, 38.999939%, 60.554504%)" offset="0.644531"/><stop stop-opacity="1" stop-color="rgb(37.052917%, 38.653564%, 60.295105%)" offset="0.648438"/><stop stop-opacity="1" stop-color="rgb(36.706543%, 38.305664%, 60.037231%)" offset="0.652344"/><stop stop-opacity="1" stop-color="rgb(36.358643%, 37.95929%, 59.777832%)" offset="0.65625"/><stop stop-opacity="1" stop-color="rgb(36.010742%, 37.611389%, 59.518433%)" offset="0.660156"/><stop stop-opacity="1" stop-color="rgb(35.664368%, 37.263489%, 59.260559%)" offset="0.664062"/><stop stop-opacity="1" stop-color="rgb(35.316467%, 36.917114%, 59.00116%)" offset="0.667969"/><stop stop-opacity="1" stop-color="rgb(34.970093%, 36.569214%, 58.743286%)" offset="0.671875"/><stop stop-opacity="1" stop-color="rgb(34.622192%, 36.222839%, 58.483887%)" offset="0.675781"/><stop stop-opacity="1" stop-color="rgb(34.275818%, 35.874939%, 58.226013%)" offset="0.679688"/><stop stop-opacity="1" stop-color="rgb(33.927917%, 35.528564%, 57.966614%)" offset="0.683594"/><stop stop-opacity="1" stop-color="rgb(33.581543%, 35.180664%, 57.70874%)" offset="0.6875"/><stop stop-opacity="1" stop-color="rgb(33.233643%, 34.83429%, 57.449341%)" offset="0.691406"/><stop stop-opacity="1" stop-color="rgb(32.885742%, 34.486389%, 57.191467%)" offset="0.695312"/><stop stop-opacity="1" stop-color="rgb(32.539368%, 34.138489%, 56.932068%)" offset="0.699219"/><stop stop-opacity="1" stop-color="rgb(32.191467%, 33.792114%, 56.674194%)" offset="0.703125"/><stop stop-opacity="1" stop-color="rgb(31.845093%, 33.444214%, 56.414795%)" offset="0.707031"/><stop stop-opacity="1" stop-color="rgb(31.497192%, 33.097839%, 56.156921%)" offset="0.710938"/><stop stop-opacity="1" stop-color="rgb(31.150818%, 32.749939%, 55.897522%)" offset="0.714844"/><stop stop-opacity="1" stop-color="rgb(30.802917%, 32.403564%, 55.639648%)" offset="0.71875"/><stop stop-opacity="1" stop-color="rgb(30.456543%, 32.055664%, 55.380249%)" offset="0.722656"/><stop stop-opacity="1" stop-color="rgb(30.108643%, 31.70929%, 55.122375%)" offset="0.726562"/><stop stop-opacity="1" stop-color="rgb(29.760742%, 31.361389%, 54.862976%)" offset="0.730469"/><stop stop-opacity="1" stop-color="rgb(29.414368%, 31.013489%, 54.603577%)" offset="0.734375"/><stop stop-opacity="1" stop-color="rgb(29.066467%, 30.667114%, 54.345703%)" offset="0.738281"/><stop stop-opacity="1" stop-color="rgb(28.720093%, 30.319214%, 54.086304%)" offset="0.742188"/><stop stop-opacity="1" stop-color="rgb(28.372192%, 29.972839%, 53.82843%)" offset="0.746094"/><stop stop-opacity="1" stop-color="rgb(28.199768%, 29.798889%, 53.69873%)" offset="1"/></radialGradient></defs><g clip-path="url(#57bc295582)"><g clip-path="url(#0d6521067b)"><g clip-path="url(#6fc89863c7)"><path fill="url(#d658c9ddec)" d="M 0 194.933594 L 0 615.5 L 809.976562 615.5 L 809.976562 194.933594 Z M 0 194.933594 " fill-rule="nonzero"/></g></g></g><path fill="#777bb3" d="M 404.988281 599.882812 C 619.917969 599.882812 794.15625 512.726562 794.15625 405.214844 C 794.15625 297.703125 619.917969 210.546875 404.988281 210.546875 C 190.058594 210.546875 15.820312 297.703125 15.820312 405.214844 C 15.820312 512.726562 190.058594 599.882812 404.988281 599.882812 " fill-opacity="1" fill-rule="nonzero"/><path fill="#000000" d="M 220.027344 429.347656 C 237.699219 429.347656 250.894531 426.128906 259.242188 419.789062 C 267.5 413.515625 273.203125 402.640625 276.191406 387.46875 C 278.980469 373.292969 277.917969 363.394531 273.039062 358.050781 C 268.046875 352.59375 257.257812 349.828125 240.96875 349.828125 L 212.726562 349.828125 L 197.070312 429.347656 Z M 127.65625 527.304688 C 126.347656 527.304688 125.101562 526.726562 124.269531 525.726562 C 123.851562 525.226562 123.5625 524.664062 123.398438 524.035156 C 123.238281 523.410156 123.21875 522.777344 123.34375 522.140625 L 164.839844 311.410156 C 164.9375 310.917969 165.117188 310.453125 165.378906 310.019531 C 165.636719 309.589844 165.964844 309.210938 166.359375 308.890625 C 166.753906 308.570312 167.1875 308.328125 167.667969 308.15625 C 168.148438 307.988281 168.644531 307.902344 169.152344 307.902344 L 258.585938 307.902344 C 286.691406 307.902344 307.613281 315.417969 320.761719 330.292969 C 333.980469 345.230469 338.066406 366.109375 332.894531 392.347656 C 330.792969 403.039062 327.175781 412.964844 322.144531 421.859375 C 317.105469 430.757812 310.449219 438.992188 302.355469 446.335938 C 292.664062 455.289062 281.695312 461.78125 269.78125 465.601562 C 258.058594 469.371094 243.007812 471.28125 225.035156 471.28125 L 188.824219 471.28125 L 178.480469 523.800781 C 178.382812 524.292969 178.207031 524.757812 177.945312 525.1875 C 177.683594 525.621094 177.355469 525.996094 176.964844 526.316406 C 176.570312 526.636719 176.132812 526.882812 175.652344 527.054688 C 175.175781 527.222656 174.679688 527.308594 174.167969 527.308594 L 127.648438 527.308594 Z M 127.65625 527.304688 " fill-opacity="1" fill-rule="nonzero"/><path fill="#ffffff" d="M 216.351562 354.164062 L 240.972656 354.164062 C 260.628906 354.164062 267.460938 358.421875 269.78125 360.957031 C 273.628906 365.171875 274.355469 374.054688 271.882812 386.644531 C 269.101562 400.742188 263.949219 410.738281 256.5625 416.351562 C 249 422.097656 236.710938 425.007812 220.03125 425.007812 L 202.410156 425.007812 L 216.359375 354.164062 Z M 258.582031 303.558594 L 169.15625 303.558594 C 168.648438 303.558594 168.148438 303.601562 167.648438 303.6875 C 167.148438 303.773438 166.664062 303.898438 166.1875 304.070312 C 165.710938 304.238281 165.25 304.445312 164.8125 304.691406 C 164.371094 304.9375 163.957031 305.222656 163.566406 305.539062 C 163.175781 305.855469 162.816406 306.207031 162.484375 306.585938 C 162.15625 306.964844 161.863281 307.367188 161.601562 307.796875 C 161.34375 308.226562 161.125 308.675781 160.945312 309.140625 C 160.765625 309.609375 160.625 310.085938 160.527344 310.578125 L 119.035156 521.324219 C 118.910156 521.953125 118.859375 522.585938 118.878906 523.226562 C 118.894531 523.863281 118.984375 524.492188 119.144531 525.113281 C 119.304688 525.734375 119.53125 526.328125 119.824219 526.898438 C 120.117188 527.46875 120.46875 528.003906 120.882812 528.496094 C 121.292969 528.988281 121.753906 529.433594 122.265625 529.824219 C 122.777344 530.21875 123.328125 530.550781 123.914062 530.824219 C 124.5 531.097656 125.109375 531.304688 125.742188 531.441406 C 126.375 531.582031 127.015625 531.652344 127.660156 531.652344 L 174.167969 531.652344 C 174.675781 531.652344 175.179688 531.609375 175.675781 531.523438 C 176.175781 531.4375 176.664062 531.3125 177.140625 531.144531 C 177.617188 530.972656 178.074219 530.765625 178.515625 530.519531 C 178.953125 530.273438 179.371094 529.988281 179.761719 529.671875 C 180.152344 529.355469 180.511719 529.003906 180.839844 528.625 C 181.167969 528.246094 181.464844 527.84375 181.722656 527.414062 C 181.980469 526.984375 182.203125 526.535156 182.382812 526.070312 C 182.5625 525.601562 182.699219 525.125 182.796875 524.632812 L 192.445312 475.625 L 225.039062 475.625 C 243.46875 475.625 258.984375 473.644531 271.152344 469.730469 C 283.660156 465.71875 295.175781 458.917969 305.359375 449.511719 C 313.785156 441.863281 320.742188 433.273438 325.984375 423.984375 C 331.230469 414.695312 335.023438 404.328125 337.214844 393.183594 C 342.660156 365.5625 338.238281 343.445312 324.078125 327.449219 C 310.054688 311.605469 288.023438 303.570312 258.59375 303.570312 M 191.75 433.695312 L 220.039062 433.695312 C 238.789062 433.695312 252.757812 430.210938 261.933594 423.238281 C 271.105469 416.261719 277.300781 404.621094 280.515625 388.308594 C 283.59375 372.648438 282.191406 361.597656 276.3125 355.15625 C 270.433594 348.71875 258.648438 345.5 240.980469 345.5 L 209.117188 345.5 L 191.75 433.695312 M 258.59375 312.246094 C 285.496094 312.246094 305.125 319.214844 317.460938 333.152344 C 329.796875 347.089844 333.511719 366.546875 328.589844 391.527344 C 326.5625 401.816406 323.136719 411.226562 318.3125 419.75 C 313.488281 428.273438 307.179688 436.078125 299.386719 443.148438 C 290.097656 451.726562 279.78125 457.839844 268.429688 461.484375 C 257.078125 465.132812 242.621094 466.953125 225.042969 466.953125 L 185.207031 466.953125 L 174.175781 522.976562 L 127.667969 522.976562 L 169.164062 312.261719 L 258.597656 312.261719 " fill-opacity="1" fill-rule="nonzero"/><path fill="#000000" d="M 439.527344 471.277344 C 438.214844 471.277344 436.972656 470.699219 436.140625 469.695312 C 435.304688 468.695312 434.964844 467.382812 435.214844 466.109375 L 453.570312 372.867188 C 455.316406 364 454.886719 357.636719 452.359375 354.949219 C 450.8125 353.304688 446.164062 350.546875 432.425781 350.546875 L 399.171875 350.546875 L 376.09375 467.765625 C 376 468.257812 375.820312 468.722656 375.558594 469.152344 C 375.296875 469.585938 374.96875 469.964844 374.578125 470.285156 C 374.183594 470.605469 373.746094 470.847656 373.265625 471.019531 C 372.785156 471.1875 372.292969 471.273438 371.78125 471.273438 L 325.640625 471.273438 C 325.316406 471.273438 324.996094 471.238281 324.679688 471.167969 C 324.363281 471.101562 324.058594 470.996094 323.765625 470.859375 C 323.472656 470.722656 323.199219 470.558594 322.941406 470.359375 C 322.6875 470.164062 322.457031 469.941406 322.25 469.695312 C 322.042969 469.449219 321.867188 469.183594 321.722656 468.898438 C 321.574219 468.613281 321.460938 468.316406 321.382812 468.003906 C 321.300781 467.695312 321.257812 467.378906 321.246094 467.058594 C 321.238281 466.742188 321.265625 466.425781 321.328125 466.109375 L 362.820312 255.378906 C 362.917969 254.882812 363.097656 254.421875 363.359375 253.988281 C 363.621094 253.554688 363.945312 253.179688 364.339844 252.859375 C 364.734375 252.539062 365.171875 252.292969 365.652344 252.125 C 366.128906 251.953125 366.625 251.871094 367.136719 251.871094 L 413.277344 251.871094 C 413.601562 251.871094 413.921875 251.902344 414.238281 251.972656 C 414.554688 252.042969 414.859375 252.148438 415.152344 252.285156 C 415.445312 252.421875 415.71875 252.585938 415.972656 252.78125 C 416.230469 252.980469 416.460938 253.199219 416.667969 253.449219 C 416.875 253.695312 417.050781 253.960938 417.195312 254.246094 C 417.34375 254.53125 417.457031 254.828125 417.535156 255.136719 C 417.617188 255.449219 417.660156 255.761719 417.667969 256.082031 C 417.679688 256.402344 417.652344 256.71875 417.589844 257.035156 L 407.578125 307.894531 L 443.351562 307.894531 C 470.601562 307.894531 489.082031 312.636719 499.847656 322.394531 C 510.835938 332.347656 514.242188 348.261719 510.023438 369.703125 L 490.71875 467.765625 C 490.621094 468.261719 490.441406 468.722656 490.179688 469.15625 C 489.921875 469.589844 489.59375 469.964844 489.199219 470.285156 C 488.804688 470.605469 488.371094 470.851562 487.890625 471.023438 C 487.410156 471.191406 486.914062 471.277344 486.402344 471.277344 Z M 439.527344 471.277344 " fill-opacity="1" fill-rule="nonzero"/><path fill="#ffffff" d="M 413.28125 247.53125 L 367.136719 247.53125 C 366.632812 247.53125 366.128906 247.574219 365.632812 247.660156 C 365.132812 247.746094 364.644531 247.875 364.167969 248.042969 C 363.691406 248.210938 363.234375 248.417969 362.792969 248.664062 C 362.355469 248.914062 361.9375 249.195312 361.546875 249.511719 C 361.15625 249.832031 360.796875 250.179688 360.46875 250.558594 C 360.136719 250.9375 359.84375 251.339844 359.585938 251.769531 C 359.324219 252.199219 359.105469 252.648438 358.925781 253.117188 C 358.746094 253.582031 358.605469 254.0625 358.511719 254.550781 L 317.015625 465.28125 C 316.890625 465.910156 316.839844 466.542969 316.859375 467.183594 C 316.875 467.824219 316.964844 468.453125 317.125 469.074219 C 317.285156 469.691406 317.511719 470.289062 317.804688 470.859375 C 318.097656 471.429688 318.449219 471.960938 318.863281 472.457031 C 319.273438 472.949219 319.734375 473.390625 320.246094 473.785156 C 320.757812 474.175781 321.308594 474.511719 321.894531 474.785156 C 322.480469 475.054688 323.089844 475.261719 323.722656 475.402344 C 324.355469 475.542969 324.996094 475.613281 325.644531 475.613281 L 371.785156 475.613281 C 372.289062 475.613281 372.792969 475.570312 373.292969 475.484375 C 373.789062 475.398438 374.277344 475.269531 374.753906 475.101562 C 375.230469 474.933594 375.6875 474.726562 376.128906 474.476562 C 376.570312 474.230469 376.984375 473.949219 377.375 473.632812 C 377.765625 473.3125 378.125 472.964844 378.457031 472.585938 C 378.785156 472.207031 379.078125 471.800781 379.339844 471.371094 C 379.597656 470.941406 379.816406 470.496094 379.996094 470.027344 C 380.175781 469.5625 380.316406 469.082031 380.414062 468.59375 L 402.800781 354.882812 L 432.433594 354.882812 C 446.148438 354.882812 449.023438 357.777344 449.140625 357.898438 C 449.972656 358.78125 451.066406 362.875 449.261719 372.039062 L 430.90625 465.28125 C 430.785156 465.910156 430.730469 466.542969 430.75 467.183594 C 430.769531 467.824219 430.855469 468.453125 431.015625 469.074219 C 431.175781 469.691406 431.402344 470.289062 431.695312 470.859375 C 431.988281 471.429688 432.339844 471.960938 432.753906 472.457031 C 433.164062 472.949219 433.628906 473.390625 434.140625 473.785156 C 434.652344 474.175781 435.199219 474.511719 435.785156 474.785156 C 436.371094 475.054688 436.980469 475.261719 437.613281 475.402344 C 438.246094 475.542969 438.886719 475.613281 439.535156 475.613281 L 486.410156 475.613281 C 486.914062 475.613281 487.417969 475.570312 487.914062 475.484375 C 488.414062 475.398438 488.902344 475.269531 489.378906 475.101562 C 489.855469 474.933594 490.3125 474.726562 490.753906 474.476562 C 491.191406 474.230469 491.609375 473.949219 492 473.632812 C 492.390625 473.3125 492.75 472.964844 493.078125 472.585938 C 493.410156 472.207031 493.703125 471.800781 493.960938 471.371094 C 494.222656 470.941406 494.441406 470.496094 494.621094 470.027344 C 494.800781 469.5625 494.941406 469.082031 495.035156 468.59375 L 514.34375 370.527344 C 518.871094 347.511719 514.996094 330.242188 502.828125 319.199219 C 491.214844 308.675781 471.761719 303.558594 443.359375 303.558594 L 412.914062 303.558594 L 421.910156 257.859375 C 422.035156 257.234375 422.089844 256.597656 422.070312 255.960938 C 422.050781 255.320312 421.960938 254.691406 421.804688 254.070312 C 421.644531 253.449219 421.417969 252.855469 421.125 252.285156 C 420.832031 251.714844 420.476562 251.179688 420.066406 250.6875 C 419.652344 250.195312 419.191406 249.75 418.679688 249.359375 C 418.167969 248.964844 417.621094 248.632812 417.035156 248.359375 C 416.445312 248.085938 415.835938 247.878906 415.203125 247.738281 C 414.574219 247.601562 413.933594 247.53125 413.285156 247.53125 M 413.285156 256.207031 L 402.253906 312.230469 L 443.359375 312.230469 C 469.222656 312.230469 487.0625 316.6875 496.882812 325.589844 C 506.703125 334.488281 509.640625 348.925781 505.71875 368.875 L 486.414062 466.9375 L 439.539062 466.9375 L 457.894531 373.699219 C 459.980469 363.089844 459.214844 355.855469 455.585938 352 C 451.960938 348.140625 444.242188 346.210938 432.4375 346.210938 L 395.550781 346.210938 L 371.785156 466.9375 L 325.644531 466.9375 L 367.136719 256.207031 L 413.28125 256.207031 " fill-opacity="1" fill-rule="nonzero"/><path fill="#000000" d="M 583.035156 429.347656 C 600.707031 429.347656 613.902344 426.128906 622.25 419.789062 C 630.507812 413.515625 636.210938 402.640625 639.203125 387.46875 C 641.988281 373.292969 640.925781 363.394531 636.046875 358.050781 C 631.054688 352.59375 620.265625 349.828125 603.976562 349.828125 L 575.734375 349.828125 L 560.078125 429.347656 Z M 490.664062 527.300781 C 489.351562 527.300781 488.105469 526.722656 487.273438 525.722656 C 486.855469 525.222656 486.566406 524.660156 486.402344 524.03125 C 486.242188 523.40625 486.222656 522.773438 486.347656 522.136719 L 527.84375 311.40625 C 527.941406 310.910156 528.121094 310.449219 528.378906 310.015625 C 528.640625 309.582031 528.96875 309.207031 529.363281 308.886719 C 529.757812 308.566406 530.191406 308.320312 530.671875 308.152344 C 531.152344 307.980469 531.648438 307.898438 532.160156 307.898438 L 621.589844 307.898438 C 649.699219 307.898438 670.617188 315.414062 683.765625 330.289062 C 696.988281 345.222656 701.066406 366.101562 695.898438 392.34375 C 693.792969 403.035156 690.175781 412.960938 685.144531 421.855469 C 680.105469 430.753906 673.449219 438.988281 665.355469 446.332031 C 655.664062 455.285156 644.695312 461.777344 632.785156 465.597656 C 621.0625 469.367188 606.007812 471.277344 588.039062 471.277344 L 551.796875 471.277344 L 541.460938 523.792969 C 541.363281 524.289062 541.183594 524.753906 540.925781 525.183594 C 540.664062 525.617188 540.335938 525.996094 539.941406 526.316406 C 539.550781 526.636719 539.113281 526.878906 538.632812 527.050781 C 538.152344 527.21875 537.65625 527.304688 537.144531 527.304688 L 490.640625 527.304688 Z M 490.664062 527.300781 " fill-opacity="1" fill-rule="nonzero"/><path fill="#ffffff" d="M 579.359375 354.164062 L 603.980469 354.164062 C 623.636719 354.164062 630.46875 358.421875 632.789062 360.957031 C 636.640625 365.171875 637.367188 374.054688 634.890625 386.644531 C 632.109375 400.742188 626.953125 410.738281 619.570312 416.351562 C 612.007812 422.097656 599.71875 425.007812 583.039062 425.007812 L 565.414062 425.007812 Z M 621.589844 303.558594 L 532.15625 303.558594 C 531.652344 303.558594 531.148438 303.601562 530.648438 303.6875 C 530.152344 303.773438 529.664062 303.898438 529.1875 304.070312 C 528.710938 304.238281 528.253906 304.445312 527.8125 304.691406 C 527.375 304.9375 526.957031 305.222656 526.566406 305.539062 C 526.175781 305.855469 525.816406 306.207031 525.488281 306.585938 C 525.15625 306.964844 524.863281 307.367188 524.605469 307.796875 C 524.347656 308.226562 524.125 308.675781 523.945312 309.140625 C 523.765625 309.609375 523.628906 310.085938 523.53125 310.578125 L 482.03125 521.324219 C 481.910156 521.953125 481.855469 522.585938 481.875 523.226562 C 481.894531 523.863281 481.984375 524.492188 482.140625 525.113281 C 482.300781 525.734375 482.527344 526.328125 482.820312 526.898438 C 483.113281 527.46875 483.464844 528.003906 483.878906 528.496094 C 484.292969 528.988281 484.753906 529.433594 485.265625 529.824219 C 485.777344 530.21875 486.324219 530.550781 486.910156 530.824219 C 487.496094 531.097656 488.105469 531.304688 488.738281 531.441406 C 489.371094 531.582031 490.011719 531.652344 490.660156 531.652344 L 537.167969 531.652344 C 537.671875 531.652344 538.175781 531.609375 538.675781 531.523438 C 539.171875 531.4375 539.660156 531.3125 540.136719 531.144531 C 540.613281 530.972656 541.070312 530.765625 541.511719 530.519531 C 541.953125 530.273438 542.367188 529.988281 542.757812 529.671875 C 543.148438 529.355469 543.507812 529.003906 543.835938 528.625 C 544.167969 528.246094 544.460938 527.84375 544.71875 527.414062 C 544.980469 526.984375 545.199219 526.535156 545.378906 526.070312 C 545.558594 525.601562 545.699219 525.125 545.792969 524.632812 L 555.441406 475.625 L 588.035156 475.625 C 606.464844 475.625 621.980469 473.644531 634.148438 469.730469 C 646.65625 465.71875 658.167969 458.917969 668.359375 449.511719 C 676.785156 441.863281 683.722656 433.273438 688.980469 423.984375 C 694.238281 414.695312 698.019531 404.328125 700.210938 393.183594 C 705.65625 365.5625 701.234375 343.441406 687.074219 327.445312 C 673.050781 311.605469 651.019531 303.570312 621.589844 303.570312 M 554.746094 433.695312 L 583.035156 433.695312 C 601.785156 433.695312 615.753906 430.210938 624.925781 423.238281 C 634.101562 416.261719 640.296875 404.621094 643.511719 388.3125 C 646.59375 372.648438 645.191406 361.597656 639.308594 355.15625 C 633.429688 348.71875 621.644531 345.5 603.976562 345.5 L 572.113281 345.5 L 554.746094 433.695312 M 621.589844 312.246094 C 648.492188 312.246094 668.121094 319.214844 680.457031 333.152344 C 692.792969 347.089844 696.507812 366.546875 691.585938 391.527344 C 689.558594 401.816406 686.132812 411.226562 681.308594 419.75 C 676.484375 428.273438 670.175781 436.078125 662.382812 443.148438 C 653.09375 451.726562 642.777344 457.839844 631.425781 461.484375 C 620.074219 465.132812 605.617188 466.953125 588.039062 466.953125 L 548.203125 466.953125 L 537.171875 522.976562 L 490.664062 522.976562 L 532.160156 312.246094 L 621.589844 312.246094 " fill-opacity="1" fill-rule="nonzero"/></svg>